# xmcd
# Track frame offsets:
# 150
# 12300
# 25007
# 37855
# 53195
# 64102
# 76082
# 89340
# 102142
# 120447
# 137665
# 150130
#
# Disc length: 2160 seconds
# Revision: 0
# Processed by: cddbd v1.5.2PL0 Copyright (c) Steve Scherf et al.
# Submitted via: VisiTrax 2.10.0.248 - For more info visit www.synapsa.com
#
DISCID=7d086e0c
DTITLE=Special Consensus - The Trail Of Aching Hearts
DYEAR=2007
DGENRE=Bluegrass
TTITLE0=I'd Like to Waner Back To The Old Home
TTITLE1=I'm Gonna Love You One More Time
TTITLE2=Down The Trail of Aching Hearts
TTITLE3=Rich Mans Coal
TTITLE4=Burns Breakdown
TTITLE5=The Road To You
TTITLE6=Lift Your Voice In Prayer
TTITLE7=Josies's Reel
TTITLE8=Ten Mile Tennessee
TTITLE9=Blue Skies
TTITLE10=The Shoes Goes On The Other Foot Tonight
TTITLE11=Branded Wherever I Go
EXTD=
EXTT0=
EXTT1=
EXTT2=
EXTT3=
EXTT4=
EXTT5=
EXTT6=
EXTT7=
EXTT8=
EXTT9=
EXTT10=
EXTT11=
PLAYORDER=
